<svg width="850" height="219" viewBox="0 0 850 219" fill="none" xmlns="http://www.w3.org/2000/svg">
<mask id="mask0" style="mask-type:alpha" maskUnits="userSpaceOnUse" x="0" y="0" width="850" height="219">
<rect width="849.184" height="219" rx="16" fill="#1993FC"/>
</mask>
<g mask="url(#mask0)">
<g opacity="0.5">
<g clip-path="url(#clip0)">
<path d="M638.375 140.708H625.25V134.145C625.25 133.797 625.388 133.464 625.634 133.217C625.88 132.971 626.214 132.833 626.562 132.833H635.75C636.209 132.833 636.661 132.712 637.059 132.482C637.458 132.253 637.789 131.923 638.019 131.525C638.25 131.128 638.372 130.677 638.374 130.217C638.375 129.757 638.256 129.305 638.028 128.906L629.77 114.458H633.125C633.593 114.457 634.052 114.332 634.455 114.094C634.858 113.857 635.19 113.516 635.417 113.107C635.644 112.698 635.757 112.236 635.746 111.768C635.734 111.3 635.598 110.844 635.351 110.447L622.226 89.447C621.974 89.0905 621.641 88.7998 621.253 88.599C620.866 88.3983 620.436 88.2936 620 88.2936C619.563 88.2936 619.134 88.3983 618.746 88.599C618.359 88.7998 618.025 89.0905 617.774 89.447L604.649 110.447C604.402 110.844 604.265 111.3 604.254 111.768C604.242 112.236 604.356 112.698 604.583 113.107C604.81 113.516 605.142 113.857 605.545 114.094C605.948 114.332 606.407 114.457 606.875 114.458H610.23L601.966 128.906C601.738 129.306 601.619 129.758 601.62 130.218C601.622 130.678 601.745 131.13 601.976 131.528C602.208 131.925 602.539 132.255 602.938 132.484C603.337 132.714 603.79 132.834 604.25 132.833H613.437C613.785 132.833 614.119 132.971 614.365 133.217C614.611 133.464 614.75 133.797 614.75 134.145V141.931C603.706 144.662 593.429 149.868 584.694 157.156C584.51 157.303 584.369 157.496 584.286 157.716C584.202 157.936 584.18 158.174 584.221 158.406C584.259 158.638 584.36 158.856 584.513 159.035C584.665 159.215 584.864 159.349 585.087 159.424C596.594 162.994 606.914 169.627 614.939 178.613C615.838 179.7 616.504 180.959 616.896 182.314C617.288 183.669 617.397 185.089 617.217 186.488C617.193 186.676 617.209 186.867 617.265 187.049C617.321 187.23 617.416 187.397 617.543 187.538C617.665 187.677 617.816 187.789 617.986 187.865C618.155 187.941 618.339 187.98 618.525 187.979H638.375C639.071 187.979 639.739 187.702 640.231 187.21C640.723 186.718 641 186.05 641 185.354V143.354C641.003 143.007 640.937 142.664 640.806 142.343C640.675 142.022 640.482 141.73 640.238 141.484C639.994 141.238 639.704 141.043 639.384 140.91C639.064 140.777 638.721 140.708 638.375 140.708Z" fill="#AEDBFA"/>
<path d="M516.166 172.649C515.807 172.889 515.512 173.214 515.309 173.595C515.106 173.976 515 174.401 515 174.833V185.333C515 186.029 515.277 186.696 515.769 187.189C516.261 187.681 516.929 187.958 517.625 187.958H606.875C607.374 187.957 607.862 187.815 608.283 187.547C608.704 187.28 609.04 186.898 609.251 186.446C609.463 185.994 609.541 185.491 609.477 184.997C609.414 184.502 609.21 184.036 608.891 183.653C596.044 168.233 572.257 162.889 557 161.897V149.895C557 149.547 557.138 149.213 557.384 148.967C557.631 148.721 557.964 148.583 558.312 148.583H575.585C576.545 148.582 577.487 148.318 578.308 147.819C579.128 147.32 579.796 146.606 580.239 145.754C580.682 144.901 580.882 143.944 580.819 142.986C580.756 142.028 580.431 141.105 579.88 140.319L567.28 122.333H570.582C571.522 122.332 572.445 122.079 573.255 121.599C574.064 121.12 574.729 120.432 575.182 119.607C575.634 118.783 575.857 117.851 575.826 116.911C575.795 115.971 575.513 115.057 575.007 114.263L561.646 93.2633C562.423 93.0446 563.138 92.65 563.737 92.1101C564.336 91.5702 564.803 90.8995 565.101 90.15C565.399 89.4006 565.521 88.5925 565.456 87.7886C565.391 86.9846 565.142 86.2064 564.728 85.5143L551.377 63.2333C551.127 62.8673 550.79 62.5679 550.398 62.3611C550.006 62.1542 549.569 62.0461 549.125 62.0461C548.681 62.0461 548.244 62.1542 547.852 62.3611C547.46 62.5679 547.123 62.8673 546.873 63.2333L533.506 85.5091C533.091 86.2017 532.841 86.9807 532.776 87.7856C532.711 88.5905 532.833 89.3995 533.132 90.1497C533.43 90.9 533.898 91.5712 534.498 92.1112C535.099 92.6512 535.816 93.0455 536.593 93.2633L523.232 114.263C522.726 115.057 522.442 115.972 522.41 116.913C522.379 117.854 522.601 118.786 523.054 119.611C523.506 120.437 524.172 121.125 524.982 121.605C525.792 122.085 526.716 122.338 527.658 122.338H530.96L518.36 140.324C517.809 141.111 517.484 142.034 517.42 142.993C517.357 143.951 517.558 144.909 518.002 145.761C518.445 146.613 519.114 147.328 519.935 147.826C520.757 148.324 521.699 148.588 522.66 148.588H539.938C540.286 148.588 540.619 148.726 540.866 148.972C541.112 149.218 541.25 149.552 541.25 149.9V162.553C532.24 164.006 523.67 167.456 516.166 172.649Z" fill="#AEDBFA"/>
</g>
<g clip-path="url(#clip1)">
<path d="M512.375 175.708H499.25V169.145C499.25 168.797 499.388 168.464 499.634 168.217C499.88 167.971 500.214 167.833 500.562 167.833H509.75C510.209 167.833 510.661 167.712 511.059 167.482C511.458 167.253 511.789 166.923 512.019 166.525C512.25 166.128 512.372 165.677 512.374 165.217C512.375 164.757 512.256 164.305 512.028 163.906L503.77 149.458H507.125C507.593 149.457 508.052 149.332 508.455 149.094C508.858 148.857 509.19 148.516 509.417 148.107C509.644 147.698 509.757 147.236 509.746 146.768C509.734 146.3 509.598 145.844 509.351 145.447L496.226 124.447C495.974 124.091 495.641 123.8 495.253 123.599C494.866 123.398 494.436 123.294 494 123.294C493.563 123.294 493.134 123.398 492.746 123.599C492.359 123.8 492.025 124.091 491.774 124.447L478.649 145.447C478.402 145.844 478.265 146.3 478.254 146.768C478.242 147.236 478.356 147.698 478.583 148.107C478.81 148.516 479.142 148.857 479.545 149.094C479.948 149.332 480.407 149.457 480.875 149.458H484.23L475.966 163.906C475.738 164.306 475.619 164.758 475.62 165.218C475.622 165.678 475.745 166.13 475.976 166.528C476.208 166.925 476.539 167.255 476.938 167.484C477.337 167.714 477.79 167.834 478.25 167.833H487.437C487.785 167.833 488.119 167.971 488.365 168.217C488.611 168.464 488.75 168.797 488.75 169.145V176.931C477.706 179.662 467.429 184.868 458.694 192.156C458.51 192.303 458.369 192.496 458.286 192.716C458.202 192.936 458.18 193.174 458.221 193.406C458.259 193.638 458.36 193.856 458.513 194.035C458.665 194.215 458.864 194.349 459.087 194.424C470.594 197.994 480.914 204.627 488.939 213.613C489.838 214.7 490.504 215.959 490.896 217.314C491.288 218.669 491.397 220.089 491.217 221.488C491.193 221.676 491.209 221.867 491.265 222.049C491.321 222.23 491.416 222.397 491.543 222.538C491.665 222.677 491.816 222.789 491.986 222.865C492.155 222.941 492.339 222.98 492.525 222.979H512.375C513.071 222.979 513.739 222.702 514.231 222.21C514.723 221.718 515 221.05 515 220.354V178.354C515.003 178.007 514.937 177.664 514.806 177.343C514.675 177.022 514.482 176.73 514.238 176.484C513.994 176.238 513.704 176.043 513.384 175.91C513.064 175.777 512.721 175.708 512.375 175.708Z" fill="#AEDBFA"/>
<path d="M390.166 207.649C389.807 207.889 389.512 208.214 389.309 208.595C389.106 208.976 389 209.401 389 209.833V220.333C389 221.029 389.277 221.696 389.769 222.189C390.261 222.681 390.929 222.958 391.625 222.958H480.875C481.374 222.957 481.862 222.815 482.283 222.547C482.704 222.28 483.04 221.898 483.251 221.446C483.463 220.994 483.541 220.491 483.477 219.997C483.414 219.502 483.21 219.036 482.891 218.653C470.044 203.233 446.257 197.889 431 196.897V184.895C431 184.547 431.138 184.213 431.384 183.967C431.631 183.721 431.964 183.583 432.312 183.583H449.585C450.545 183.582 451.487 183.318 452.308 182.819C453.128 182.32 453.796 181.606 454.239 180.754C454.682 179.901 454.882 178.944 454.819 177.986C454.756 177.028 454.431 176.105 453.88 175.319L441.28 157.333H444.582C445.522 157.332 446.445 157.079 447.255 156.599C448.064 156.12 448.729 155.432 449.182 154.607C449.634 153.783 449.857 152.851 449.826 151.911C449.795 150.971 449.513 150.057 449.007 149.263L435.646 128.263C436.423 128.045 437.138 127.65 437.737 127.11C438.336 126.57 438.803 125.899 439.101 125.15C439.399 124.401 439.521 123.593 439.456 122.789C439.391 121.985 439.142 121.206 438.728 120.514L425.377 98.2333C425.127 97.8673 424.79 97.5679 424.398 97.3611C424.006 97.1542 423.569 97.0461 423.125 97.0461C422.681 97.0461 422.244 97.1542 421.852 97.3611C421.46 97.5679 421.123 97.8673 420.873 98.2333L407.506 120.509C407.091 121.202 406.841 121.981 406.776 122.786C406.711 123.59 406.833 124.4 407.132 125.15C407.43 125.9 407.898 126.571 408.498 127.111C409.099 127.651 409.816 128.045 410.593 128.263L397.232 149.263C396.726 150.057 396.442 150.972 396.41 151.913C396.379 152.854 396.601 153.786 397.054 154.611C397.506 155.437 398.172 156.125 398.982 156.605C399.792 157.085 400.716 157.338 401.658 157.338H404.96L392.36 175.324C391.809 176.111 391.484 177.034 391.42 177.993C391.357 178.951 391.558 179.909 392.002 180.761C392.445 181.613 393.114 182.328 393.935 182.826C394.757 183.324 395.699 183.588 396.66 183.588H413.938C414.286 183.588 414.619 183.726 414.866 183.972C415.112 184.218 415.25 184.552 415.25 184.9V197.553C406.24 199.006 397.67 202.456 390.166 207.649Z" fill="#AEDBFA"/>
</g>
</g>
<path d="M453.391 204.62C419.288 226.098 398.921 269.823 393 289H856V-84C802.714 -55.2339 834.685 12.8458 805.082 29.1465C775.478 45.4473 723.376 22.4344 681.931 55.9949C640.486 89.5553 657.064 135.581 615.619 159.553C574.174 183.524 496.02 177.771 453.391 204.62Z" fill="#3A47B8"/>
<path d="M494.643 236.565C464.085 253.637 445.836 288.39 440.531 303.633H855.389V7.16327C807.643 30.0272 836.291 84.1386 809.765 97.0949C783.24 110.051 736.555 91.7599 699.419 118.435C662.284 145.109 677.138 181.692 640.002 200.745C602.866 219.798 532.839 215.225 494.643 236.565Z" fill="#16304A"/>
<path d="M585.97 238.082C563.081 254.767 549.411 288.735 545.438 303.633H856.184V13.8673C820.42 36.2143 841.878 89.102 822.01 101.765C802.141 114.429 767.172 96.551 739.356 122.622C711.54 148.694 722.666 184.449 694.85 203.071C667.034 221.694 614.581 217.225 585.97 238.082Z" fill="#92B0C5"/>
</g>
<path opacity="0.5" d="M435.281 60.6875H429.094C427.237 60.6875 426 59.45 426 57.5938C426 55.7375 427.237 54.5 429.094 54.5H435.281C437.137 54.5 438.375 55.7375 438.375 57.5938C438.375 59.45 437.137 60.6875 435.281 60.6875Z" fill="#FFCC4D"/>
<path opacity="0.5" d="M447.037 32.2248C446.109 32.2248 445.49 31.9154 444.872 31.2966L440.54 26.9654C439.303 25.7279 439.303 23.8716 440.54 22.6341C441.778 21.3966 443.634 21.3966 444.872 22.6341L449.203 26.9654C450.44 28.2029 450.44 30.0591 449.203 31.2966C448.584 31.9154 447.965 32.2248 447.037 32.2248Z" fill="#FFCC4D"/>
<path opacity="0.5" d="M475.5 20.4688C473.644 20.4688 472.406 19.2312 472.406 17.375V11.1875C472.406 9.33125 473.644 8.09375 475.5 8.09375C477.356 8.09375 478.594 9.33125 478.594 11.1875V17.375C478.594 19.2312 477.356 20.4688 475.5 20.4688Z" fill="#FFCC4D"/>
<path opacity="0.5" d="M503.962 32.2248C503.034 32.2248 502.416 31.9154 501.797 31.2966C500.559 30.0591 500.559 28.2029 501.797 26.9654L506.128 22.6341C507.366 21.3966 509.222 21.3966 510.459 22.6341C511.697 23.8716 511.697 25.7279 510.459 26.9654L506.128 31.2966C505.509 31.9154 504.891 32.2248 503.962 32.2248Z" fill="#FFCC4D"/>
<path opacity="0.5" d="M521.906 60.6875H515.719C513.862 60.6875 512.625 59.45 512.625 57.5938C512.625 55.7375 513.862 54.5 515.719 54.5H521.906C523.762 54.5 525 55.7375 525 57.5938C525 59.45 523.762 60.6875 521.906 60.6875Z" fill="#FFCC4D"/>
<path opacity="0.5" d="M508.294 93.4811C507.366 93.4811 506.747 93.1718 506.128 92.553L501.797 88.2218C500.559 86.9843 500.559 85.128 501.797 83.8905C503.034 82.653 504.891 82.653 506.128 83.8905L510.459 88.2218C511.697 89.4593 511.697 91.3155 510.459 92.553C509.841 93.1718 509.222 93.4811 508.294 93.4811Z" fill="#FFCC4D"/>
<path opacity="0.95" d="M475.5 29.75C460.031 29.75 447.656 42.125 447.656 57.5938C447.656 63.1625 449.513 68.7313 452.297 73.0625H463.125C468.384 73.0625 472.406 77.0844 472.406 82.3438C472.406 83.2719 472.097 84.2 471.788 85.1281C473.025 85.1281 474.263 85.4375 475.5 85.4375C490.969 85.4375 503.344 73.0625 503.344 57.5938C503.344 42.125 490.969 29.75 475.5 29.75Z" fill="#FFCC4D"/>
<path opacity="0.8" d="M463.125 85.4375H432.188C430.331 85.4375 429.094 84.2 429.094 82.3438C429.094 80.4875 430.331 79.25 432.188 79.25H463.125C464.981 79.25 466.219 80.4875 466.219 82.3438C466.219 84.2 464.981 85.4375 463.125 85.4375Z" fill="#AEDBFA"/>
<path opacity="0.8" d="M478.594 97.8125H447.656C445.8 97.8125 444.562 96.575 444.562 94.7188C444.562 92.8625 445.8 91.625 447.656 91.625H478.594C480.45 91.625 481.688 92.8625 481.688 94.7188C481.688 96.575 480.45 97.8125 478.594 97.8125Z" fill="#AEDBFA"/>
<defs>
<clipPath id="clip0">
<rect width="126" height="126" fill="white" transform="translate(515 62)"/>
</clipPath>
<clipPath id="clip1">
<rect width="126" height="126" fill="white" transform="translate(389 97)"/>
</clipPath>
</defs>
</svg>
