<svg width="166" height="166" viewBox="0 0 166 166" fill="none" xmlns="http://www.w3.org/2000/svg">
<circle opacity="0.2" cx="83" cy="83" r="83" fill="#FEFFFF"/>
<path d="M166 83C166 72.1003 163.853 61.3073 159.682 51.2373C155.511 41.1673 149.397 32.0174 141.69 24.3101C133.983 16.6029 124.833 10.4891 114.763 6.318C104.693 2.14686 93.8997 -4.76442e-07 83 0V83H166Z" fill="#6BC3FF"/>
<circle cx="83" cy="83" r="72" fill="#252525"/>
<circle opacity="0.2" cx="83" cy="83" r="64" fill="#FEFFFF"/>
<path d="M128.255 128.255C137.205 119.304 143.301 107.901 145.77 95.4858C148.24 83.071 146.972 70.2027 142.128 58.5083C137.284 46.8138 129.081 36.8184 118.556 29.7859C108.032 22.7535 95.658 19 83 19L83 83L128.255 128.255Z" fill="#A5A6F6"/>
<circle cx="83" cy="83" r="53" fill="#252525"/>
<circle opacity="0.2" cx="83" cy="83" r="45" fill="#FEFFFF"/>
<path d="M127.57 89.2053C128.458 82.829 127.967 76.3364 126.131 70.166C124.295 63.9956 121.156 58.2909 116.927 53.4372C112.698 48.5836 107.476 44.6938 101.615 42.0307C95.7539 39.3676 89.3895 37.9931 82.9517 38L83 83L127.57 89.2053Z" fill="#EF5DA8"/>
<circle cx="83" cy="83" r="34" fill="#252525"/>
</svg>
